ffmpeg started on 2016-11-24 at 22:23:36
Report written to "Output/NVENCh264/results/ffmpeg/Tsintelhq1000k.log"
Command line:
Tools/ffmpeg/ffmpeg -i Output/NVENCh264/encoded/sintelhq1000k.mkv -c:v rawvideo -pix_fmt yuv420p Output/NVENCh264/transcoded/sintelhq1000k.yuv
ffmpeg version N-82227-gdb23fde Copyright (c) 2000-2016 the FFmpeg developers
  built with gcc 5.4.0 (Ubuntu 5.4.0-6ubuntu1~16.04.2) 20160609
  configuration: --prefix=/home/jaroslav/ffmpeg_build --pkg-config-flags=--static --extra-cflags=-I/home/jaroslav/ffmpeg_build/include --extra-ldflags=-L/home/jaroslav/ffmpeg_build/lib --bindir=/home/jaroslav/bin --enable-gpl --enable-libass --enable-libfdk-aac --enable-libfreetype --enable-libmp3lame --enable-libopus --enable-libtheora --enable-libvorbis --enable-libvpx --enable-libx264 --enable-libx265 --enable-nvenc --enable-libmfx --enable-libxvid --enable-libgsm --enable-libopencore-amrnb --enable-version3 --enable-nonfree
  libavutil      55. 35.100 / 55. 35.100
  libavcodec     57. 66.101 / 57. 66.101
  libavformat    57. 57.100 / 57. 57.100
  libavdevice    57.  2.100 / 57.  2.100
  libavfilter     6. 66.100 /  6. 66.100
  libswscale      4.  3.100 /  4.  3.100
  libswresample   2.  4.100 /  2.  4.100
  libpostproc    54.  2.100 / 54.  2.100
Input #0, matroska,webm, from 'Output/NVENCh264/encoded/sintelhq1000k.mkv':
  Metadata:
    ENCODER         : Lavf57.57.100
  Duration: 00:00:20.83, start: 0.000000, bitrate: 1656 kb/s
    Stream #0:0: Video: h264 (Main), yuv420p(progressive), 4096x1744 [SAR 1:1 DAR 256:109], 24 fps, 24 tbr, 1k tbn, 48 tbc (default)
    Metadata:
      ENCODER         : Lavc57.66.101 h264_nvenc
      DURATION        : 00:00:20.834000000
Output #0, rawvideo, to 'Output/NVENCh264/transcoded/sintelhq1000k.yuv':
  Metadata:
    encoder         : Lavf57.57.100
    Stream #0:0: Video: rawvideo (I420 / 0x30323449), yuv420p, 4096x1744 [SAR 1:1 DAR 256:109], q=2-31, 200 kb/s, 24 fps, 24 tbn, 24 tbc (default)
    Metadata:
      DURATION        : 00:00:20.834000000
      encoder         : Lavc57.66.101 rawvideo
Stream mapping:
  Stream #0:0 -> #0:0 (h264 (native) -> rawvideo (native))
Press [q] to stop, [?] for help
frame=   20 fps=0.0 q=-0.0 size=  209280kB time=00:00:00.83 bitrate=2057306.9kbits/s speed=1.62x    frame=   41 fps= 39 q=-0.0 size=  429024kB time=00:00:01.70 bitrate=2057306.5kbits/s speed=1.64x    frame=   61 fps= 40 q=-0.0 size=  638304kB time=00:00:02.54 bitrate=2057305.8kbits/s speed=1.65x    frame=   81 fps= 40 q=-0.0 size=  847584kB time=00:00:03.37 bitrate=2057306.1kbits/s speed=1.65x    frame=  101 fps= 40 q=-0.0 size= 1056864kB time=00:00:04.20 bitrate=2057306.3kbits/s speed=1.65x    frame=  121 fps= 40 q=-0.0 size= 1266144kB time=00:00:05.04 bitrate=2057306.0kbits/s speed=1.65x    frame=  141 fps= 40 q=-0.0 size= 1475424kB time=00:00:05.87 bitrate=2057306.1kbits/s speed=1.65x    frame=  161 fps= 40 q=-0.0 size= 1684704kB time=00:00:06.70 bitrate=2057306.2kbits/s speed=1.65x    frame=  182 fps= 40 q=-0.0 size= 1904448kB time=00:00:07.58 bitrate=2057306.2kbits/s speed=1.66x    frame=  202 fps= 40 q=-0.0 size= 2113728kB time=00:00:08.41 bitrate=2057306.0kbits/s speed=1.66x    frame=  222 fps= 40 q=-0.0 size= 2323008kB time=00:00:09.25 bitrate=2057306.1kbits/s speed=1.66x    frame=  242 fps= 40 q=-0.0 size= 2532288kB time=00:00:10.08 bitrate=2057306.2kbits/s speed=1.66x    frame=  262 fps= 40 q=-0.0 size= 2741568kB time=00:00:10.91 bitrate=2057306.0kbits/s speed=1.65x    frame=  282 fps= 40 q=-0.0 size= 2950848kB time=00:00:11.75 bitrate=2057306.1kbits/s speed=1.65x    frame=  301 fps= 39 q=-0.0 size= 3149664kB time=00:00:12.54 bitrate=2057306.1kbits/s speed=1.64x    frame=  319 fps= 39 q=-0.0 size= 3338016kB time=00:00:13.29 bitrate=2057306.1kbits/s speed=1.63x    frame=  338 fps= 39 q=-0.0 size= 3536832kB time=00:00:14.08 bitrate=2057306.2kbits/s speed=1.62x    frame=  357 fps= 39 q=-0.0 size= 3735648kB time=00:00:14.87 bitrate=2057306.1kbits/s speed=1.61x    frame=  376 fps= 38 q=-0.0 size= 3934464kB time=00:00:15.66 bitrate=2057306.1kbits/s speed= 1.6x    frame=  388 fps= 38 q=-0.0 size= 4060032kB time=00:00:16.16 bitrate=2057306.1kbits/s speed=1.56x    frame=  407 fps= 37 q=-0.0 size= 4258848kB time=00:00:16.95 bitrate=2057306.2kbits/s speed=1.56x    frame=  427 fps= 37 q=-0.0 size= 4468128kB time=00:00:17.79 bitrate=2057306.1kbits/s speed=1.56x    frame=  444 fps= 37 q=-0.0 size= 4646016kB time=00:00:18.50 bitrate=2057306.1kbits/s speed=1.55x    frame=  461 fps= 37 q=-0.0 size= 4823904kB time=00:00:19.20 bitrate=2057306.1kbits/s speed=1.55x    frame=  477 fps= 37 q=-0.0 size= 4991328kB time=00:00:19.87 bitrate=2057306.1kbits/s speed=1.54x    frame=  491 fps= 36 q=-0.0 size= 5137824kB time=00:00:20.45 bitrate=2057306.1kbits/s speed=1.49x    frame=  500 fps= 36 q=-0.0 Lsize= 5232000kB time=00:00:20.83 bitrate=2057306.1kbits/s speed=1.49x    
video:5232000kB audio:0kB subtitle:0kB other streams:0kB global headers:0kB muxing overhead: 0.000000%
